<svg width="30" height="44" viewBox="0 0 30 44" fill="none" xmlns="http://www.w3.org/2000/svg">
<path d="M15 7.67442L15.9091 6.58909C15.407 5.98969 14.593 5.98969 14.0909 6.58909L15 7.67442ZM15 24.0465L14.0909 25.1318C14.593 25.7312 15.407 25.7312 15.9091 25.1318L15 24.0465ZM10.6623 10.6821C10.1602 11.2815 10.1602 12.2534 10.6623 12.8528C11.1644 13.4522 11.9784 13.4522 12.4805 12.8528L10.6623 10.6821ZM17.5195 12.8528C18.0216 13.4522 18.8355 13.4522 19.3377 12.8528C19.8398 12.2534 19.8398 11.2815 19.3377 10.6821L17.5195 12.8528ZM12.4805 18.8682C11.9784 18.2688 11.1644 18.2688 10.6623 18.8682C10.1602 19.4676 10.1602 20.4393 10.6623 21.0388L12.4805 18.8682ZM19.3377 21.0388C19.8398 20.4393 19.8398 19.4676 19.3377 18.8682C18.8355 18.2688 18.0216 18.2688 17.5195 18.8682L19.3377 21.0388ZM0 17.907V26.093H2.57143V17.907H0ZM30 26.093V17.907H27.4286V26.093H30ZM13.7143 7.67442V24.0465H16.2857V7.67442H13.7143ZM14.0909 6.58909L10.6623 10.6821L12.4805 12.8528L15.9091 8.75975L14.0909 6.58909ZM14.0909 8.75975L17.5195 12.8528L19.3377 10.6821L15.9091 6.58909L14.0909 8.75975ZM15.9091 22.9612L12.4805 18.8682L10.6623 21.0388L14.0909 25.1318L15.9091 22.9612ZM15.9091 25.1318L19.3377 21.0388L17.5195 18.8682L14.0909 22.9612L15.9091 25.1318ZM30 17.907C30 8.01723 23.2843 0 15 0V3.06977C21.8642 3.06977 27.4286 9.71262 27.4286 17.907H30ZM15 44C23.2843 44 30 35.9828 30 26.093H27.4286C27.4286 34.2875 21.8642 40.9302 15 40.9302V44ZM0 26.093C0 35.9828 6.71573 44 15 44V40.9302C8.1359 40.9302 2.57143 34.2875 2.57143 26.093H0ZM2.57143 17.907C2.57143 9.71262 8.1359 3.06977 15 3.06977V0C6.71573 0 0 8.01723 0 17.907H2.57143Z" fill="#4F5556"/>
</svg>
